<svg width="61" height="37" viewBox="0 0 61 37" fill="none" xmlns="http://www.w3.org/2000/svg">
<path fill-rule="evenodd" clip-rule="evenodd" d="M21 16C21 14.3431 21.747 13 22.6685 13H52.3315C53.253 13 54 14.3431 54 16C54 17.6568 53.253 19 52.3315 19H22.6685C21.747 19 21 17.6568 21 16Z" fill="black"/>
<path fill-rule="evenodd" clip-rule="evenodd" d="M3.32568 29C3.32568 27.3431 4.48019 26 5.90434 26H51.747C53.1712 26 54.3257 27.3431 54.3257 29C54.3257 30.6569 53.1712 32 51.747 32H5.90434C4.48019 32 3.32568 30.6569 3.32568 29Z" fill="black"/>
<path fill-rule="evenodd" clip-rule="evenodd" d="M4 3.49999C4 1.56699 5.1545 0 6.57865 0H52.4213C53.8455 0 55 1.56699 55 3.49999C55 5.43298 53.8455 6.99999 52.4213 6.99999H6.57865C5.1545 6.99999 4 5.43298 4 3.49999Z" fill="black"/>
</svg>
