<svg width="68" height="40" viewBox="0 0 68 40" fill="none" xmlns="http://www.w3.org/2000/svg">
<path fill-rule="evenodd" clip-rule="evenodd" d="M11.2104 1.02828C12.4312 -0.0919091 14.2014 -0.149344 15.1643 0.899993L46.1582 34.6777C47.1211 35.727 46.912 37.4857 45.6912 38.6059C44.4704 39.7261 42.7002 39.7835 41.7373 38.7342L10.7434 4.95655C9.78055 3.90721 9.98965 2.14846 11.2104 1.02828Z" fill="black"/>
<path fill-rule="evenodd" clip-rule="evenodd" d="M45.9998 1.76537C47.1846 2.92358 47.338 4.68805 46.3424 5.70644L14.2966 38.4878C13.3011 39.5062 11.5336 39.3928 10.3488 38.2346C9.16398 37.0764 9.01056 35.3119 10.0061 34.2935L42.0519 1.5122C43.0475 0.493817 44.815 0.607164 45.9998 1.76537Z" fill="black"/>
</svg>
